<?xml version="1.0" encoding="utf-8"?>
<!-- Generator: Adobe Illustrator 23.0.1, SVG Export Plug-In . SVG Version: 6.00 Build 0)  -->
<svg version="1.1" xmlns="http://www.w3.org/2000/svg" xmlns:xlink="http://www.w3.org/1999/xlink" x="0px" y="0px"
	 viewBox="0 0 1280 1280" style="enable-background:new 0 0 1280 1280;" xml:space="preserve">
<style type="text/css">
	.st0{fill:url(#SVGID_1_);}
	.st1{fill:url(#SVGID_2_);}
	.st2{display:none;}
	.st3{display:inline;}
	.st4{fill:#F2F2F2;}
	.st5{fill:url(#SVGID_3_);}
	.st6{fill:url(#SVGID_4_);}
</style>
<g id="Camada_1">
	<g>
		<linearGradient id="SVGID_1_" gradientUnits="userSpaceOnUse" x1="1129.8138" y1="1203.9137" x2="211.2067" y2="328.9805">
			<stop  offset="2.717173e-07" style="stop-color:#40191A"/>
			<stop  offset="1" style="stop-color:#C84E51"/>
		</linearGradient>
		<polygon class="st0" points="1280,1170.7 910,1170.7 42.5,242.9 		"/>
		
			<linearGradient id="SVGID_2_" gradientUnits="userSpaceOnUse" x1="1444.1843" y1="1015.9993" x2="136.9503" y2="0.8504" gradientTransform="matrix(1 0 0 -1 -9.150686e-05 1280)">
			<stop  offset="0" style="stop-color:#BF4A4D"/>
			<stop  offset="0.2383" style="stop-color:#C84E51"/>
			<stop  offset="0.633" style="stop-color:#E2585B"/>
			<stop  offset="1" style="stop-color:#FF6366"/>
		</linearGradient>
		<path class="st1" d="M640,109.3L640,109.3L0,1170.7h363.9L640,109.3l270,1061.5h370L640,109.3z"/>
	</g>
</g>
<g id="Camada_2" class="st2">
	<g class="st3">
		<path class="st4" d="M152.5,997.8h-51.7L0,1224h53.7l19.9-48.4h105l20,48.4h54.9L152.5,997.8z M90.5,1135.8l35.8-86.6l35.8,86.6
			H90.5z"/>
		<path class="st4" d="M398.7,984.1v84.3c-12.5-13.9-29.8-21-52-21c-16.4,0-31.2,3.7-44.5,11s-23.6,17.8-31.1,31.3
			c-7.5,13.6-11.3,29.3-11.3,47.2s3.8,33.7,11.3,47.2c7.5,13.5,17.9,24,31.1,31.3c13.3,7.3,28.1,11,44.5,11
			c23.6,0,41.7-7.5,54.2-22.6v20h48.1V984.1H398.7z M387.1,1172.1c-8.4,8.7-19,13.1-31.6,13.1c-12.9,0-23.5-4.4-31.9-13.1
			c-8.4-8.7-12.6-20.4-12.6-35.1c0-14.7,4.3-26.4,12.6-35.1c8.3-8.7,19-13.1,31.9-13.1c12.7,0,23.2,4.4,31.6,13.1
			c8.4,8.7,12.6,20.4,12.6,35.1C399.7,1151.7,395.6,1163.4,387.1,1172.1z"/>
		<path class="st4" d="M622.3,984.1v84.3c-12.5-13.9-29.8-21-52-21c-16.4,0-31.2,3.7-44.5,11c-13.2,7.3-23.6,17.8-31.1,31.3
			c-7.5,13.6-11.3,29.3-11.3,47.2s3.8,33.7,11.3,47.2c7.5,13.5,17.9,24,31.1,31.3c13.3,7.3,28.1,11,44.5,11
			c23.6,0,41.7-7.5,54.2-22.6v20h48.1V984.1H622.3z M610.6,1172.1c-8.4,8.7-18.9,13.1-31.6,13.1c-12.9,0-23.5-4.4-31.9-13.1
			s-12.6-20.4-12.6-35.1c0-14.7,4.3-26.4,12.6-35.1c8.3-8.7,19-13.1,31.9-13.1c12.7,0,23.2,4.4,31.6,13.1
			c8.4,8.7,12.6,20.4,12.6,35.1C623.3,1151.7,619.1,1163.4,610.6,1172.1z"/>
		<path class="st4" d="M735.4,1221.2c-13.7-3.6-24.7-8-33-13.4l16.8-36.2c7.7,5,17.1,9,28.1,12.1c11,3.2,21.8,4.7,32.4,4.7
			c21.4,0,31.9-5.3,31.9-15.9c0-5-3-8.5-8.7-10.7c-5.8-2.1-14.8-4-26.9-5.5c-14.2-2.1-25.9-4.6-35.2-7.4
			c-9.3-2.8-17.3-7.7-24.1-14.9c-6.8-7.1-10.2-17.2-10.2-30.3c0-11,3.2-20.8,9.6-29.2c6.3-8.5,15.6-15.2,27.8-19.8
			c12.2-4.8,26.6-7.1,43.1-7.1c12.3,0,24.5,1.3,36.6,4.1c12.2,2.7,22.3,6.4,30.2,11.2l-16.8,35.8c-15.3-8.6-31.9-12.9-50.1-12.9
			c-10.8,0-18.8,1.5-24.2,4.5c-5.4,3.1-8,6.9-8,11.6c0,5.4,3,9.2,8.7,11.3c5.8,2.1,15.1,4.2,27.8,6.1c14.2,2.3,25.8,4.9,34.9,7.6
			c9.1,2.6,16.9,7.6,23.6,14.7c6.7,7.1,10,17,10,29.7c0,10.8-3.3,20.3-9.7,28.8c-6.5,8.4-15.9,15-28.3,19.5
			c-12.4,4.6-27.1,6.9-44.1,6.9C763.3,1226.5,749.1,1224.8,735.4,1221.2z"/>
		
			<linearGradient id="SVGID_3_" gradientUnits="userSpaceOnUse" x1="877.819" y1="142.8952" x2="1068.7863" y2="142.8952" gradientTransform="matrix(1 0 0 -1 0 1280)">
			<stop  offset="0" style="stop-color:#BF4A4D"/>
			<stop  offset="0.2383" style="stop-color:#C84E51"/>
			<stop  offset="0.633" style="stop-color:#E2585B"/>
			<stop  offset="1" style="stop-color:#FF6366"/>
		</linearGradient>
		<path class="st5" d="M1056.5,1090.9c-8.1-13.6-19.4-24.2-33.9-31.8s-30.8-11.5-49.1-11.5c-18.3,0-34.7,3.9-49.2,11.5
			c-14.5,7.6-25.9,18.3-34.1,31.8c-8.2,13.5-12.3,29-12.3,46.2c0,17.2,4.2,32.7,12.3,46.2c8.1,13.6,19.5,24.2,34.1,31.8
			c14.5,7.6,30.9,11.4,49.2,11.5c18.3,0,34.7-3.9,49.1-11.5c14.3-7.6,25.7-18.3,33.9-31.8c8.2-13.5,12.3-29,12.3-46.2
			C1068.8,1119.9,1064.6,1104.4,1056.5,1090.9z M1005.3,1172.1c-8.3,8.7-18.9,13.1-31.8,13.1c-12.9,0-23.5-4.4-31.9-13.1
			s-12.6-20.4-12.6-35.1c0-14.7,4.2-26.4,12.6-35.1c8.3-8.7,19-13.1,31.9-13.1c12.9,0,23.5,4.4,31.8,13.1
			c8.2,8.7,12.4,20.4,12.4,35.1C1017.7,1151.7,1013.5,1163.4,1005.3,1172.1z"/>
		
			<linearGradient id="SVGID_4_" gradientUnits="userSpaceOnUse" x1="1102.4624" y1="144.1167" x2="1280" y2="144.1167" gradientTransform="matrix(1 0 0 -1 0 1280)">
			<stop  offset="0" style="stop-color:#BF4A4D"/>
			<stop  offset="0.2383" style="stop-color:#C84E51"/>
			<stop  offset="0.633" style="stop-color:#E2585B"/>
			<stop  offset="1" style="stop-color:#FF6366"/>
		</linearGradient>
		<path class="st6" d="M1260.2,1067c13.2,12.9,19.8,32,19.8,57.5v99.5h-50.4v-91.8c0-13.7-3.1-24.1-9.1-30.8
			c-6-6.8-14.8-10.2-26.1-10.2c-12.7,0-22.8,4-30.3,11.8c-7.5,7.8-11.3,19.5-11.3,35.1v86h-50.4v-173.8h48.1v20.3
			c6.7-7.3,15-13,24.9-17c9.9-4,20.8-6,32.7-6C1229.5,1047.6,1246.9,1054.1,1260.2,1067z"/>
	</g>
</g>
</svg>
